<?xml version="1.0" encoding="iso-8859-1"?>
<!-- Generator: Adobe Illustrator 19.0.0, SVG Export Plug-In . SVG Version: 6.00 Build 0)  -->
<svg version="1.1" id="Layer_1" xmlns="http://www.w3.org/2000/svg" xmlns:xlink="http://www.w3.org/1999/xlink" x="0px" y="0px"
	 viewBox="0 0 512 512" style="enable-background:new 0 0 512 512;" xml:space="preserve">
<g>
	<g>
		<polygon points="169.547,169.547 169.547,342.455 208.309,342.455 208.309,327.247 184.755,327.247 184.755,184.755 
			327.247,184.755 327.247,327.247 228.589,327.247 228.589,342.455 342.455,342.455 342.455,169.547 		" fill="#ffffff"/>
	</g>
</g>
<g>
	<g>
		<path d="M512,283.675v-55.354h-92.878v-30.256H512v-55.354h-92.878V92.879h-49.837V0h-55.354v92.879h-30.256V0h-55.354v92.879
			h-30.256V0h-55.354v92.879H92.879v49.836H0v55.354h92.879v30.256H0v55.354h92.879v30.256H0v55.354h92.879v49.833h49.836V512
			h55.354v-92.878h30.256V512h55.354v-92.878h30.256V512h55.354v-92.878h49.833v-49.838H512v-55.354h-92.878v-30.256H512z
			 M92.879,354.08H15.208v-24.938h77.671V354.08z M92.879,268.471H15.208v-24.938h77.671V268.471z M92.879,182.861H15.208v-24.938
			h77.671V182.861z M419.122,157.92h77.67v24.938h-77.67V157.92z M329.139,15.208h24.938v77.671h-24.938V15.208z M243.529,15.208
			h24.938v77.671h-24.938V15.208z M157.92,15.208h24.938v77.671H157.92V15.208z M182.861,496.792h-24.938v-77.67h24.938V496.792z
			 M268.471,496.792h-24.938v-77.67h24.938V496.792z M329.142,496.792v-77.67h24.938v77.67H329.142z M403.914,142.711h-0.001v55.354
			h0.001v30.256h-0.001v55.354h0.001v30.256h-0.001v55.354h0.001v34.63h-34.625v-0.001h-55.354v0.001h-30.256v-0.001h-55.354v0.001
			h-30.256v-0.001h-55.354v0.001h-34.628v-34.625v-55.354v-30.256v-55.354v-30.256v-55.354v-34.628h34.624h55.354h30.256h55.354
			h30.256h55.354h34.63V142.711z M496.792,329.139v24.938h-77.67v-24.938H496.792z M419.122,268.467v-24.938h77.67v24.938H419.122z"
			/>
	</g>
</g>
<g>
</g>
<g>
</g>
<g>
</g>
<g>
</g>
<g>
</g>
<g>
</g>
<g>
</g>
<g>
</g>
<g>
</g>
<g>
</g>
<g>
</g>
<g>
</g>
<g>
</g>
<g>
</g>
<g>
</g>
</svg>
