<?xml version="1.0" encoding="utf-8"?>
<!-- Svg Vector Icons : http://www.onlinewebfonts.com/icon -->
<!DOCTYPE svg PUBLIC "-//W3C//DTD SVG 1.1//EN" "http://www.w3.org/Graphics/SVG/1.1/DTD/svg11.dtd">
<svg version="1.1" xmlns="http://www.w3.org/2000/svg" xmlns:xlink="http://www.w3.org/1999/xlink" x="0px" y="0px" viewBox="0 0 1000 1000" enable-background="new 0 0 1000 1000" xml:space="preserve">
<metadata> Svg Vector Icons : http://www.onlinewebfonts.com/icon </metadata>
<g><path d="M691.1,383.2C526,383.2,392.2,517,392.2,682.1S526,981,691.1,981C856.2,981,990,847.2,990,682.1S856.2,383.2,691.1,383.2z M827.6,775.6c-4.5,28.9-20.6,92.2-107.7,98.5v55.4h-61.6v-55c-36.8-5.2-70.7-14.7-105.6-26.4l18.5-72.4c27.6,10.8,64.1,22.3,96.1,26c43.5,5.1,72.8-3.9,75.5-35.4c6.2-55.2-187.5-65-185.7-164.6c-2.7-73.2,50.5-105.1,103.4-109.5v-57.6h61.6v55c35,0.5,62.7,8,89.6,19.8l-17.1,68.2c-27.1-10.2-54.8-19.8-87.9-19.8c-21.5,0-66.5,0.1-68.1,29.6c0,51,85.3,53.6,113.6,65.6c20.6,8.8,35,17.3,49.7,31.7C827.5,709.9,832.8,742.2,827.6,775.6z"/><path d="M378.1,8.5C174.8,8.5,10,90.2,10,191.1c0,100.8,164.8,182.6,368.1,182.6c203.3,0,368-81.7,368-182.6C746.1,90.2,581.3,8.5,378.1,8.5z M546.2,248.2c-5.5,17.7-25.3,56.3-132.7,60.2v33.8h-75.8v-33.6c-45.3-3.2-87.1-9-130-16.1l22.8-44.2c34,6.6,78.8,13.6,118.3,15.9c53.5,3.1,89.7-2.4,93-21.6c7.6-33.8-230.9-39.7-228.7-100.6c-3.3-44.7,62.2-64.2,127.3-66.9V39.9h75.8v33.6c43.1,0.3,77.1,4.9,110.3,12.1l-21,41.6c-33.4-6.2-67.4-12.1-108.3-12.1c-26.4,0-81.9,0-83.8,18.1c0,31.1,105,32.7,139.8,40.1c25.4,5.4,43.1,10.6,61.2,19.4C546,208,552.6,227.7,546.2,248.2z"/><path d="M494.1,420.5c-36.5,6-75.4,9.4-116,9.4c-175.2,0-321.5-60.8-358.7-142.1c-6,13-9.4,26.6-9.4,40.5C10,429.2,174.8,511,378.1,511c9.9,0,19.6-0.4,29.2-0.7C430.1,474.9,459.5,444.4,494.1,420.5z"/><path d="M736,370.2c6.4-13.4,10.1-27.4,10.1-41.8c0-14-3.4-27.5-9.4-40.5c-13.2,28.9-40.5,55.2-77.7,77.1c5.2-0.3,10.4-0.8,15.7-0.8C695.6,364.1,716.1,366.3,736,370.2z"/><path d="M378.1,550C202.9,550,56.6,489.3,19.4,408c-6,13-9.4,26.6-9.4,40.5c0,98,155.7,177.7,350.9,182.2c4.7-28.4,13-55.5,24.6-80.8C383.1,549.9,380.6,550,378.1,550z"/><path d="M357.2,669.7c-165.8-4.6-302-63.6-337.8-141.6c-6,13-9.4,26.6-9.4,40.5c0,98.5,157.4,178.6,354.3,182.2c-4.9-22.2-7.7-45.2-7.7-68.8C356.6,677.9,357,673.9,357.2,669.7z"/><path d="M19.4,648.3c-6,13-9.4,26.6-9.4,40.5c0,100.8,164.8,182.6,368.1,182.6c13.7,0,27.1-0.4,40.4-1.1c-17.8-24.2-32-51.2-42.5-80C201.7,789.8,56.5,729.3,19.4,648.3z"/><path d="M450.5,906.8c-23.4,2.3-47.6,3.7-72.4,3.7c-175.2,0-321.5-60.8-358.7-142.1c-6,13-9.4,26.6-9.4,40.5c0,100.8,164.8,182.6,368.1,182.6c59.9,0,116.3-7.3,166.3-19.9C509.2,955.8,477.5,933.8,450.5,906.8z"/></g>
</svg>