<?xml version="1.0" ?><svg id="Layer_1_1_" style="enable-background:new 0 0 64 64;" version="1.1" viewBox="0 0 64 64" xml:space="preserve" xmlns="http://www.w3.org/2000/svg" xmlns:xlink="http://www.w3.org/1999/xlink"><g><path d="M53.85,44.364c0.133,0.339,0.245,0.822,0.03,1.193l1.732,1.001c0.478-0.827,0.514-1.865,0.101-2.922   L53.85,44.364z" style="fill:#3F3A34;"/><path d="M52.416,40.093c-2.915-1.682-6.075-1.478-7.196,0.464l1.732,1c0.473-0.817,2.479-0.877,4.464,0.268   c0.459,0.265,0.878,0.571,1.245,0.91l1.355-1.471C53.541,40.826,53.002,40.432,52.416,40.093z" style="fill:#3F3A34;"/><path d="M58.761,43.332c-0.38-1.42-1.183-2.766-2.298-3.917C58.14,35.832,59,31.998,59,28   C59,13.112,46.888,1,32,1S5,13.112,5,28c0,3.998,0.86,7.832,2.537,11.414c-1.115,1.152-1.918,2.497-2.298,3.917   c-0.449,1.674-0.271,3.277,0.515,4.634c1.144,1.978,3.396,3.023,5.935,3.023c1.49,0,3.073-0.384,4.593-1.128   c-0.933,2.825-0.357,5.567,1.636,6.717c0.603,0.348,1.267,0.513,1.955,0.513c1.766,0,3.687-1.096,5.132-2.979   C25.052,59.023,28.17,63,32,63c3.779,0,6.861-3.874,6.988-8.693c1.426,1.761,3.27,2.785,4.974,2.785   c0.688,0,1.354-0.166,1.955-0.513c2.015-1.164,2.585-3.955,1.606-6.814c1.578,0.81,3.235,1.224,4.789,1.224   c2.538,0,4.791-1.046,5.935-3.024C59.031,46.608,59.21,45.006,58.761,43.332z M32,3c13.785,0,25,11.215,25,25   c0,3.516-0.714,6.895-2.113,10.065c-0.291-0.205-0.593-0.401-0.908-0.582v0c-0.276-0.159-0.555-0.303-0.836-0.436   C54.37,34.186,55,31.147,55,28C55,15.318,44.683,5,32,5S9,15.318,9,28c0,3.158,0.625,6.195,1.853,9.049   c-0.279,0.132-0.557,0.276-0.831,0.434v0c-0.315,0.181-0.617,0.377-0.908,0.582C7.714,34.895,7,31.516,7,28C7,14.215,18.215,3,32,3   z M42.754,39.035c-0.785,1.357-0.964,2.959-0.515,4.634c0.049,0.181,0.116,0.359,0.178,0.538c-1.222-0.406-2.456-0.355-3.5,0.248   c-1.112,0.642-1.768,1.791-1.989,3.162C35.662,46.001,33.92,45,32,45c-1.989,0-3.783,1.078-5.058,2.796   c-0.188-1.453-0.863-2.671-2.025-3.342c-0.993-0.572-2.155-0.642-3.317-0.299c0.055-0.162,0.117-0.322,0.161-0.486   c0.449-1.674,0.271-3.277-0.515-4.634c-1.521-2.63-5.005-3.603-8.513-2.669C11.584,33.73,11,30.922,11,28c0-11.58,9.421-21,21-21   s21,9.42,21,21c0,2.912-0.59,5.722-1.739,8.363C47.755,35.43,44.274,36.404,42.754,39.035z M37,54h-2v-1.586l1.486-1.486   C36.812,51.857,37,52.897,37,54z M27.514,50.928L29,52.414V54h-2C27,52.897,27.188,51.857,27.514,50.928z M29,56v0.586   l-1.199,1.199c-0.253-0.548-0.454-1.147-0.59-1.785H29z M30,50.586l-1.534-1.534c0.68-0.953,1.556-1.632,2.534-1.911v2.445   L30,50.586z M32,57.586l-1-1v-4.172l1-1l1,1v4.172L32,57.586z M33,47.141c0.978,0.279,1.853,0.959,2.534,1.911L34,50.586l-1-1   V47.141z M35,56h1.789c-0.136,0.639-0.337,1.237-0.59,1.785L35,56.586V56z M7.484,46.964c-0.513-0.888-0.622-1.965-0.313-3.115   c0.479-1.788,1.918-3.52,3.849-4.633v0c3.317-1.912,7.128-1.544,8.496,0.819c0.513,0.888,0.622,1.965,0.313,3.115   c-0.479,1.788-1.918,3.52-3.849,4.633C12.662,49.694,8.852,49.328,7.484,46.964z M24.016,52.017   c-1.355,2.348-3.689,3.646-5.099,2.83c-1.408-0.812-1.453-3.482-0.098-5.83c1.354-2.347,3.687-3.643,5.098-2.831   C25.325,47,25.37,49.669,24.016,52.017z M28.916,59.498L30,58.414l1,1v1.445C30.224,60.638,29.516,60.16,28.916,59.498z M33,60.859   v-1.445l1-1l1.084,1.084C34.484,60.16,33.776,60.638,33,60.859z M44.917,54.847c-1.413,0.812-3.743-0.484-5.098-2.83   c-1.354-2.347-1.31-5.017,0.098-5.83c0.286-0.166,0.61-0.244,0.957-0.244c1.359,0,3.062,1.203,4.142,3.074   C46.37,51.364,46.325,54.034,44.917,54.847z M56.516,46.964c-1.368,2.364-5.179,2.73-8.496,0.82   c-1.931-1.113-3.369-2.845-3.849-4.633c-0.309-1.15-0.199-2.228,0.313-3.115c0.778-1.345,2.349-2.044,4.168-2.044   c1.378,0,2.898,0.4,4.328,1.224v0c1.931,1.113,3.369,2.845,3.849,4.633C57.138,44.999,57.028,46.077,56.516,46.964z" style="fill:#3F3A34;"/><path d="M8.287,43.636c-0.413,1.057-0.377,2.095,0.101,2.922l1.732-1.001   c-0.215-0.372-0.103-0.854,0.03-1.193L8.287,43.636z" style="fill:#3F3A34;"/><path d="M11.584,40.094c-0.586,0.338-1.125,0.732-1.601,1.171l1.355,1.471   c0.367-0.339,0.786-0.645,1.245-0.91c1.984-1.146,3.992-1.085,4.464-0.268l1.732-1C17.659,38.616,14.501,38.411,11.584,40.094z" style="fill:#3F3A34;"/></g></svg>