<?xml version="1.0" encoding="iso-8859-1"?>
<!-- Generator: Adobe Illustrator 19.0.0, SVG Export Plug-In . SVG Version: 6.00 Build 0)  -->
<svg version="1.1" id="Layer_1" xmlns="http://www.w3.org/2000/svg" xmlns:xlink="http://www.w3.org/1999/xlink" x="0px" y="0px"
	 viewBox="0 0 374.875 374.875" style="enable-background:new 0 0 374.875 374.875;" xml:space="preserve">
<g>
	
		<rect x="71.079" y="90.052" transform="matrix(-0.9574 0.2887 -0.2887 -0.9574 215.373 271.321)" style="fill:#D9A460;" width="33.197" height="122.984"/>
	
		<rect x="129.193" y="94.136" transform="matrix(-0.9574 0.2887 -0.2887 -0.9574 330.3068 262.5384)" style="fill:#D9A460;" width="33.198" height="122.984"/>
	
		<rect x="239.47" y="99.601" transform="matrix(-0.9388 -0.3446 0.3446 -0.9388 440.9458 400.565)" style="fill:#D9A460;" width="33.201" height="122.992"/>
	
		<rect x="38.62" y="99.869" transform="matrix(-0.7071 0.7071 -0.7071 -0.7071 208.3641 236.4152)" style="fill:#F2D383;" width="33.199" height="122.984"/>
	
		<rect x="104.725" y="110.377" transform="matrix(-0.8825 0.4703 -0.4703 -0.8825 309.2243 266.487)" style="fill:#F2D383;" width="33.199" height="122.985"/>
	
		<rect x="162.839" y="84.596" transform="matrix(-0.89 -0.4559 0.4559 -0.89 272.5408 357.9162)" style="fill:#F2D383;" width="33.199" height="122.983"/>
	
		<rect x="216.165" y="99.585" transform="matrix(-0.9806 -0.1958 0.1958 -0.9806 429.4819 364.6092)" style="fill:#F2D383;" width="33.198" height="122.981"/>
	
		<rect x="180.891" y="99.866" transform="matrix(0.9684 -0.2496 0.2496 0.9684 -34.0239 54.3981)" style="fill:#D9A460;" width="33.201" height="122.993"/>
	
		<rect x="279.748" y="86.497" transform="matrix(-0.8247 -0.5655 0.5655 -0.8247 457.0643 437.6272)" style="fill:#F2D383;" width="33.198" height="122.979"/>
	
		<rect x="303.057" y="106.819" transform="matrix(-0.7071 -0.7071 0.7071 -0.7071 426.6741 513.3547)" style="fill:#D9A460;" width="33.199" height="122.983"/>
	<g>
		<path style="fill:#B3874F;" d="M343.743,268.8c-4.355,12.257-18.564,22.285-31.572,22.285H68.298
			c-13.008,0-27.216-10.028-31.572-22.285L9.35,191.785c-4.356-12.258,2.722-22.286,15.73-22.286h330.31
			c13.008,0,20.086,10.028,15.73,22.285L343.743,268.8z"/>
		<path style="fill:#D9A460;" d="M328.593,210.081h-95.195v-17.147c0-2.286-1.854-4.139-4.139-4.139s-4.139,1.853-4.139,4.139
			v17.147h-37.843v-17.147c0-2.286-1.853-4.139-4.139-4.139s-4.139,1.853-4.139,4.139v17.147h-30.155
			c-2.286,0-4.139,1.853-4.139,4.139c0,2.286,1.853,4.139,4.139,4.139h30.155v33.112h-62.084c-2.286,0-4.14,1.853-4.14,4.139
			s1.854,4.139,4.14,4.139h62.084v14.782c0,2.286,1.853,4.139,4.139,4.139s4.139-1.853,4.139-4.139v-14.782h82.778v16.26
			c0,2.286,1.854,4.139,4.141,4.139c2.285,0,4.139-1.853,4.139-4.139v-16.26h18.328c2.287,0,4.141-1.853,4.141-4.139
			c0-2.286-1.854-4.139-4.141-4.139h-18.328v-16.26c0-2.286-1.853-4.139-4.139-4.139c-2.287,0-4.141,1.853-4.141,4.139v16.26
			h-82.778v-33.112h37.843v15.374c0,2.286,1.854,4.139,4.139,4.139s4.139-1.853,4.139-4.139v-15.374h95.195
			c2.285,0,4.139-1.853,4.139-4.139C332.731,211.934,330.878,210.081,328.593,210.081z"/>
		<polygon style="fill:#997443;" points="46.88,169.499 102.003,224.623 157.127,169.499 		"/>
		<polygon style="fill:#FFFFFF;" points="61.162,169.499 105.003,213.341 148.845,169.499 		"/>
	</g>
</g>
<g>
</g>
<g>
</g>
<g>
</g>
<g>
</g>
<g>
</g>
<g>
</g>
<g>
</g>
<g>
</g>
<g>
</g>
<g>
</g>
<g>
</g>
<g>
</g>
<g>
</g>
<g>
</g>
<g>
</g>
</svg>
