<?xml version="1.0" encoding="utf-8"?>
<!-- Svg Vector Icons : http://www.onlinewebfonts.com/icon -->
<!DOCTYPE svg PUBLIC "-//W3C//DTD SVG 1.1//EN" "http://www.w3.org/Graphics/SVG/1.1/DTD/svg11.dtd">
<svg version="1.1" xmlns="http://www.w3.org/2000/svg" xmlns:xlink="http://www.w3.org/1999/xlink" x="0px" y="0px" viewBox="0 0 1000 1000" enable-background="new 0 0 1000 1000" xml:space="preserve">
<metadata> Svg Vector Icons : http://www.onlinewebfonts.com/icon </metadata>
<g><path d="M983.7,316.3l-139.4-234c-9.1-15.2-29.3-26.7-47-26.7H209.6c-17.7,0-38,11.5-47,26.7l-139.4,234c-3,5-5.8,9.7-7.8,13.3c-1,1.8-1.9,3.3-2.4,4.3c-1.3,2.4-5.3,9.5-0.7,17.6l4.7,8.3h1.9c2.2,2.7,5.2,6.4,8.8,10.9l449.7,560.6c2.8,3.5,6.1,6.4,9.8,8.5l4.4,2.2c3.9,1.6,8,2.4,12.2,2.4c4.2,0,8.3-0.8,12.2-2.4l4.4-2.2c3.7-2.2,7-5,9.8-8.5l449.7-560.6C991.8,355.9,993.4,332.5,983.7,316.3z M952,327H721l100.2-219.6L952,327z M503.6,100.1l160.3,227H343.2L503.6,100.1z M314.7,310.7L213.2,88.3h258.6L314.7,310.7z M535.4,88.3H794L692.5,310.7L535.4,88.3z M673.1,359.7l-169.3,525l-169.6-525H673.1z M185.8,107.1L286.2,327H54.8L185.8,107.1z M60.8,359.7h238.9l161.1,498.6L60.8,359.7z M707.5,359.7h239.2L546.6,858.5L707.5,359.7z"/></g>
</svg>