<?xml version="1.0" encoding="utf-8"?>
<!-- Svg Vector Icons : http://www.onlinewebfonts.com/icon -->
<!DOCTYPE svg PUBLIC "-//W3C//DTD SVG 1.1//EN" "http://www.w3.org/Graphics/SVG/1.1/DTD/svg11.dtd">
<svg version="1.1" xmlns="http://www.w3.org/2000/svg" xmlns:xlink="http://www.w3.org/1999/xlink" x="0px" y="0px" viewBox="0 0 1000 1000" enable-background="new 0 0 1000 1000" xml:space="preserve">
<metadata> Svg Vector Icons : http://www.onlinewebfonts.com/icon </metadata>
<g><path d="M405.2,531.1c-0.4,9.2,1.9,17.4,7.3,24.8c2.5,3.7,5.9,7.1,10,10l3.1-70.9C413,505.6,405.9,517.4,405.2,531.1z M481.3,669.3l2.7,117.5c7.1,0.9,13.5,2.4,21.5,2.4c4.9,0,8.4-0.9,12.8-1.3l1.5-109c-3.8-0.8-7.2-1.7-11.3-2.7C498.7,673.9,490,671.6,481.3,669.3z M757.8,337.6C715.3,296.3,611.6,234,601.8,201.8c-1.1-3-1.9-5.8-2.7-8.5c9.2-0.9,16.2-6.6,16.2-13.6c0-7.6-8.5-13.8-18.9-13.8h-1c2.5-29.7,30.4-45.9,58.2-140.4C543.2-8.5,545.3,17.9,461.2,59.9C398.9,73,403.3-12.9,324.6,26.7c40,86,72.8,109.2,80.1,139.5c-9.1,1-16.1,6.6-16.1,13.6c0,6.9,7,12.6,16.1,13.6c-0.2,1.4-0.4,2.6-0.8,4.1c-8.5,33.8-116.1,95.8-161.8,140.1c-100.2,97.4-301.7,633.5,64,646.4c172,6,193.8,6,193.8,6s21.9,0,193.9-6C1059.5,971.1,858.1,434.9,757.8,337.6z M663,717.5c-2.2,20.6-10,39.6-23.4,57.5c-13.5,17.4-31.7,31.1-55,41.3c-5.3,2.4-11.3,3.6-17,5.4l-2.7,38.1c-0.6,10.4-11.5,19.4-24.5,19.7c-13,0.3-23.4-7.9-23.2-18.3l0.4-30.6c-4,0.1-7.6,0.9-11.7,0.9c-7.4-0.1-13.9-0.6-20.8-1.2l0.7,30.8c0.2,10.3-10.2,18.5-23.1,18.1c-13-0.3-23.9-9.3-24.5-19.8l-2.9-38.2c-15.3-5.1-29-11.6-40.3-19.8c-25.9-19.7-44.6-52.6-55.2-90.9c-1.7-17,9.7-29.9,26.2-28.6c16.7,1.4,32,17.2,33.4,34.7c5.5,23.1,15.7,37,31.2,49.7l-7.4-116.2c-10.4-4-19.4-8.1-25.8-11.5c-18.7-10.4-32.3-24.2-41.1-41.1c-8.7-16.9-12.5-35.1-11.5-54.7c0.9-17.7,5.6-34.2,14.1-49.2c8.4-15.1,19.6-27.7,33.4-38.1c9.4-7.1,22.2-13.4,37.7-19.1l3.6-42.2c1-11.3,12.7-21.1,26.4-21.7c13.8-0.6,24.7,8.1,24.5,19.2l-0.9,34.3c3.3-0.1,6.5-0.6,9.9-0.6c9.1-0.1,16.9,0.9,25.3,1.6l-0.6-35.4c-0.2-11.2,10.9-19.9,24.7-19.4c13.9,0.6,25.6,10.2,26.5,21.4l3.4,44.5c1.4,0.5,2.9,0.8,4.2,1.2c23.6,9.7,41.1,22.2,52.8,37.6c11.7,15.4,20.6,40.4,26,66.5c0.8,18.1-12,32.7-29.1,32.3c-17.7-0.4-33.1-16.5-33.8-35.7c-2.5-14.1-8.3-23.7-15.6-32.6l2.3,108.4c14.6,4.8,26.5,9.1,34.7,12.8c17.9,8,31.1,19.7,39.5,34.6C662.2,678.3,665.2,696.5,663,717.5z M582.1,697.8c-1.2-0.9-3.5-1.7-5.4-2.5l-5.3,77.5c0.8-0.5,2-0.7,2.8-1.4c15.4-11.7,23.7-25.3,25.1-40.8C600.6,716.5,594.9,705.5,582.1,697.8z M497.9,475.6c-6.1,0-10.2,1-15.7,1.5l-1.5,110.4c7.5,2.2,15.9,4.5,25.4,7c5.1,1.5,9.4,2.6,14.3,4.1l-0.9-120.8C512.3,476.9,506,475.4,497.9,475.6z"/></g>
</svg>