<?xml version="1.0" encoding="iso-8859-1"?>
<!-- Generator: Adobe Illustrator 16.0.0, SVG Export Plug-In . SVG Version: 6.00 Build 0)  -->
<!DOCTYPE svg PUBLIC "-//W3C//DTD SVG 1.1//EN" "http://www.w3.org/Graphics/SVG/1.1/DTD/svg11.dtd">
<svg version="1.1" id="Capa_1" xmlns="http://www.w3.org/2000/svg" xmlns:xlink="http://www.w3.org/1999/xlink" x="0px" y="0px"
	 width="25.57px" height="25.57px" viewBox="0 0 25.57 25.57" style="enable-background:new 0 0 25.57 25.57;" xml:space="preserve"
	>
<g>
	<g>
		<path d="M18.902,1.194h-1.211C17.369,0.493,16.662,0,15.844,0H9.727C8.909,0,8.202,0.493,7.878,1.194H6.667
			c-2.242,0-4.076,1.835-4.076,4.078h20.387C22.979,3.03,21.145,1.194,18.902,1.194z"/>
		<path d="M3.831,21.988c0,1.97,1.611,3.582,3.582,3.582h10.746c1.972,0,3.582-1.612,3.582-3.582V6.466H3.831V21.988z
			 M12.294,20.496l-0.012,0.145l-2.75-0.192c-0.341-0.022-0.624-0.341-0.749-0.636c-0.261-0.605,0.078-1.326,0.274-1.907
			c0.507,0.079,3.333,0.18,3.333,0.18L12.294,20.496z M16.688,19.986c0,0-0.169,0.422-0.64,0.465
			c-0.472,0.042-1.435,0.077-1.435,0.077l0.053,1.073l-1.507-2.399l1.38-2.372l0.047,1.132c0,0,2.217,0.267,3.332-0.325
			L16.688,19.986z M18.457,15.973c0.174,0.295,0.07,0.709-0.102,0.979c-0.354,0.557-1.139,0.684-1.73,0.85
			c-0.219-0.464-1.731-2.854-1.731-2.854l2.047-1.28l0.124-0.072L18.457,15.973z M14.693,10.522c0,0,0.452-0.044,0.706,0.354
			c0.255,0.397,0.729,1.238,0.729,1.238l0.93-0.542l-1.438,2.441l-2.741-0.133l0.983-0.562c0,0-0.785-2.089-1.824-2.808
			L14.693,10.522z M10.316,10.799c0.182-0.29,0.595-0.389,0.914-0.36c0.656,0.058,1.131,0.696,1.55,1.145
			c-0.31,0.409-1.735,2.852-1.735,2.852l-2.078-1.227l-0.121-0.076L10.316,10.799z M9.855,14.252l1.181,2.479l-0.962-0.601
			c0,0-1.47,1.681-1.61,2.936l-1.246-2.343c0,0-0.253-0.377-0.022-0.791c0.229-0.412,0.745-1.229,0.745-1.229l-0.917-0.562
			L9.855,14.252z"/>
	</g>
</g>
<g>
</g>
<g>
</g>
<g>
</g>
<g>
</g>
<g>
</g>
<g>
</g>
<g>
</g>
<g>
</g>
<g>
</g>
<g>
</g>
<g>
</g>
<g>
</g>
<g>
</g>
<g>
</g>
<g>
</g>
</svg>
