<?xml version="1.0" encoding="utf-8"?>
<!-- Svg Vector Icons : http://www.onlinewebfonts.com/icon -->
<!DOCTYPE svg PUBLIC "-//W3C//DTD SVG 1.1//EN" "http://www.w3.org/Graphics/SVG/1.1/DTD/svg11.dtd">
<svg version="1.1" xmlns="http://www.w3.org/2000/svg" xmlns:xlink="http://www.w3.org/1999/xlink" x="0px" y="0px" viewBox="0 0 1000 1000" enable-background="new 0 0 1000 1000" xml:space="preserve">
<metadata> Svg Vector Icons : http://www.onlinewebfonts.com/icon </metadata>
<g><g transform="translate(0.000000,511.000000) scale(0.100000,-0.100000)"><path d="M1813.8,4922.6c-50.8-45.7-71.1-86.3-71.1-144.7c0-71.1,48.2-132,380.8-467.2l383.4-385.9l-139.6-520.5c-76.2-286.9-147.3-530.6-160-540.8c-10.2-12.7-251.4-83.8-535.7-157.4l-515.4-139.6l-383.4,380.8c-352.9,350.4-391,380.8-477.3,380.8c-137.1,0-195.5-88.9-195.5-297.1c0-264.1,66-528.1,205.7-817.5c109.2-220.9,160-294.5,335.1-472.3c236.1-236.1,467.2-383.4,766.8-485c281.8-96.5,769.3-114.3,1053.7-38.1l190.4,48.2l1856-1850.9L6361.2-2438l-33-157.4c-73.6-360.5-20.3-804.9,142.2-1147.6c218.3-462.1,660.1-827.7,1170.5-967.4c203.1-55.9,665.2-63.5,863.3-12.7c205.6,50.8,535.7,210.7,710.9,345.3c609.4,469.7,850.6,1348.2,566.2,2069.3c-175.2,441.8-512.9,802.3-936.9,992.8c-355.5,160-825.2,203.1-1195.9,106.6l-182.8-48.2L5632.5,575.8L3799.4,2409l45.7,162.5c25.4,86.3,50.8,269.1,58.4,403.7c27.9,553.5-172.6,1061.3-568.7,1449.8c-182.8,180.3-289.5,253.9-525.6,363.1c-233.6,111.7-431.6,162.5-703.3,182.8C1900.2,4983.6,1884.9,4981,1813.8,4922.6z M8387.4-2153.6c208.2-55.9,388.5-111.7,398.6-121.9c20.3-22.8,251.4-870.9,251.4-926.7c0-17.8-152.3-185.3-340.2-373.2l-337.7-337.7l-441.8,119.3c-243.8,63.5-459.6,121.9-482.4,129.5c-25.4,7.6-76.2,154.9-162.5,482.4l-124.4,469.7l350.4,350.4c340.2,342.8,352.9,350.4,431.6,330.1C7973.5-2041.9,8179.2-2097.8,8387.4-2153.6z"/></g></g>
</svg>